<svg xmlns="http://www.w3.org/2000/svg" width="280" height="180" viewBox="0 0 280 180" role="img" aria-label="BOLD-Q quantization overview">
  <rect width="280" height="180" rx="14" fill="#f8fafc" />
  <rect x="20" y="22" width="240" height="136" rx="10" fill="#fff7ed" stroke="#ea580c" stroke-width="2" />
  <rect x="38" y="48" width="54" height="72" rx="6" fill="#fed7aa" stroke="#c2410c" />
  <rect x="113" y="48" width="54" height="72" rx="6" fill="#fde68a" stroke="#a16207" />
  <rect x="188" y="48" width="54" height="72" rx="6" fill="#bbf7d0" stroke="#15803d" />
  <path d="M92 84h21M167 84h21" stroke="#111827" stroke-width="3" marker-end="url(#arrow)" />
  <path d="M54 134h172" stroke="#111827" stroke-width="2" stroke-dasharray="5 5" />
  <circle cx="65" cy="134" r="6" fill="#dc2626" />
  <circle cx="140" cy="134" r="6" fill="#2563eb" />
  <circle cx="215" cy="134" r="6" fill="#16a34a" />
  <text x="65" y="78" text-anchor="middle" font-family="Arial, sans-serif" font-size="11" font-weight="700" fill="#111827">Blocks</text>
  <text x="140" y="78" text-anchor="middle" font-family="Arial, sans-serif" font-size="11" font-weight="700" fill="#111827">Outlier</text>
  <text x="140" y="94" text-anchor="middle" font-family="Arial, sans-serif" font-size="11" font-weight="700" fill="#111827">aware</text>
  <text x="215" y="78" text-anchor="middle" font-family="Arial, sans-serif" font-size="11" font-weight="700" fill="#111827">Dual</text>
  <text x="215" y="94" text-anchor="middle" font-family="Arial, sans-serif" font-size="11" font-weight="700" fill="#111827">bias</text>
  <text x="140" y="32" text-anchor="middle" font-family="Arial, sans-serif" font-size="13" font-weight="700" fill="#9a3412">BOLD-Q</text>
  <defs>
    <marker id="arrow" markerWidth="8" markerHeight="8" refX="7" refY="4" orient="auto">
      <path d="M0,0 L8,4 L0,8 Z" fill="#111827" />
    </marker>
  </defs>
</svg>
