<svg xmlns="http://www.w3.org/2000/svg" width="280" height="180" viewBox="0 0 280 180" role="img" aria-label="Closit posit quantization overview">
  <rect width="280" height="180" rx="14" fill="#f8fafc" />
  <rect x="20" y="22" width="240" height="136" rx="10" fill="#f0fdf4" stroke="#16a34a" stroke-width="2" />
  <rect x="35" y="48" width="70" height="58" rx="8" fill="#bbf7d0" stroke="#15803d" />
  <rect x="175" y="48" width="70" height="58" rx="8" fill="#bfdbfe" stroke="#1d4ed8" />
  <path d="M105 77c18-25 52-25 70 0" fill="none" stroke="#111827" stroke-width="3" marker-end="url(#arrow)" />
  <path d="M54 130c21-34 43-34 64 0s43 34 64 0 35-34 44 0" fill="none" stroke="#7c3aed" stroke-width="3" />
  <line x1="70" y1="118" x2="70" y2="143" stroke="#dc2626" stroke-width="2" />
  <line x1="210" y1="118" x2="210" y2="143" stroke="#dc2626" stroke-width="2" />
  <text x="70" y="75" text-anchor="middle" font-family="Arial, sans-serif" font-size="12" font-weight="700" fill="#111827">ViT</text>
  <text x="210" y="70" text-anchor="middle" font-family="Arial, sans-serif" font-size="12" font-weight="700" fill="#111827">Clipped</text>
  <text x="210" y="86" text-anchor="middle" font-family="Arial, sans-serif" font-size="12" font-weight="700" fill="#111827">Posit</text>
  <text x="140" y="32" text-anchor="middle" font-family="Arial, sans-serif" font-size="13" font-weight="700" fill="#166534">Closit</text>
  <defs>
    <marker id="arrow" markerWidth="8" markerHeight="8" refX="7" refY="4" orient="auto">
      <path d="M0,0 L8,4 L0,8 Z" fill="#111827" />
    </marker>
  </defs>
</svg>
